<svg width="15" height="18" viewBox="0 0 15 18" fill="none" xmlns="http://www.w3.org/2000/svg">
<path d="M0 1.07153V16.0715H15V1.07153H0ZM8.16295 12.7702C8.16295 14.23 7.3058 14.8963 6.05692 14.8963C4.92857 14.8963 4.27567 14.3137 3.94085 13.6072L5.08929 12.9142C5.31027 13.3059 5.51116 13.6374 5.99665 13.6374C6.45871 13.6374 6.75335 13.4566 6.75335 12.7501V7.95881H8.16295V12.7702ZM11.4978 14.8963C10.1886 14.8963 9.34152 14.2735 8.92969 13.4566L10.0781 12.7936C10.3795 13.2858 10.7746 13.6508 11.4676 13.6508C12.0502 13.6508 12.4252 13.3595 12.4252 12.9543C12.4252 12.4722 12.0435 12.3014 11.3973 12.0168L11.0458 11.8662C10.0279 11.4343 9.35491 10.8885 9.35491 9.74006C9.35491 8.68202 10.1618 7.87845 11.4174 7.87845C12.3147 7.87845 12.9576 8.18984 13.4196 9.0068L12.3214 9.70993C12.0804 9.27801 11.8192 9.10725 11.4141 9.10725C11.0022 9.10725 10.7411 9.36841 10.7411 9.70993C10.7411 10.1318 11.0022 10.3026 11.6083 10.5671L11.9598 10.7177C13.1585 11.23 13.8315 11.7557 13.8315 12.9343C13.8315 14.1999 12.8337 14.8963 11.4978 14.8963Z" fill="#F7E038"/>
</svg>
