<svg width="20" height="16" viewBox="0 0 20 16" fill="none" xmlns="http://www.w3.org/2000/svg">
<path d="M9.48925 11.2071C9.48081 11.224 9.47237 11.2375 9.48925 11.2071V11.2071ZM16.4961 8.76022C15.9304 8.76004 15.3723 8.88995 14.8648 9.13991C14.6989 8.80522 14.5273 8.51272 14.4992 8.29334C14.4655 8.0374 14.4289 7.88552 14.4683 7.58177C14.5077 7.27802 14.6848 6.8477 14.682 6.81676C14.6792 6.78582 14.6427 6.63113 14.2798 6.62832C13.917 6.62551 13.6048 6.69863 13.5685 6.79426C13.5045 6.96902 13.4546 7.14867 13.4195 7.33145C13.3548 7.66052 12.6941 8.83616 12.3201 9.44929C12.1963 9.21023 12.0922 8.99929 12.0697 8.83053C12.036 8.57459 11.9994 8.42272 12.0388 8.11896C12.0782 7.81521 12.2554 7.38489 12.2526 7.35395C12.2497 7.32302 12.2132 7.16833 11.8507 7.16551C11.4881 7.1627 11.1756 7.23583 11.1391 7.33145C11.1025 7.42708 11.0631 7.65208 10.99 7.86865C10.9169 8.08521 10.0368 10.0427 9.8065 10.5518C9.68838 10.8106 9.58712 11.0187 9.514 11.1593C9.50275 11.1818 9.49431 11.1959 9.48869 11.2071C9.49712 11.1931 9.50275 11.179 9.50275 11.1846C9.44087 11.3056 9.40431 11.3731 9.40431 11.3731V11.3759C9.3565 11.4659 9.30306 11.5474 9.27775 11.5474C9.26087 11.5474 9.22431 11.3112 9.28618 10.9877C9.41837 10.3071 9.73056 9.2496 9.72775 9.21304C9.72494 9.19335 9.78681 9.01054 9.52244 8.9121C9.2665 8.81928 9.17368 8.97397 9.15118 8.97397C9.12868 8.97397 9.11181 9.03022 9.11181 9.03022C9.11181 9.03022 9.39587 7.83771 8.56646 7.83771C8.04895 7.83771 7.32894 8.40584 6.97513 8.92054C6.75293 9.04147 6.27199 9.30304 5.76574 9.58148C5.57167 9.68836 5.37198 9.79805 5.18354 9.90211C5.16948 9.88805 5.15823 9.87398 5.14417 9.85992C4.13756 8.78553 2.27904 8.02615 2.35779 6.58332C2.38592 6.05738 2.56873 4.67642 5.93168 3.00015C8.68796 1.62764 10.8916 2.00452 11.271 2.84265C11.8166 4.03798 10.0928 6.26269 7.2305 6.58332C6.13952 6.70426 5.56605 6.28238 5.42261 6.12488C5.27354 5.95894 5.25104 5.9505 5.19479 5.98144C5.10198 6.03206 5.16104 6.17832 5.19479 6.2655C5.27917 6.48769 5.63073 6.88145 6.22952 7.07833C6.75547 7.24989 8.03461 7.34552 9.58122 6.74645C11.3188 6.07706 12.6713 4.21236 12.2748 2.6514C11.8709 1.06513 9.24062 0.544813 6.7535 1.42795C5.27157 1.95389 3.66899 2.78078 2.51614 3.85798C1.14671 5.14049 0.927618 6.25707 1.01762 6.72395C1.33797 8.38053 3.62118 9.46054 4.53497 10.2593C4.48997 10.2846 4.44778 10.3071 4.40841 10.3296C3.95025 10.5574 2.20957 11.4687 1.77391 12.4306C1.28172 13.5218 1.85547 14.3037 2.23207 14.4106C3.40743 14.7369 4.61091 14.149 5.25751 13.1843C5.90411 12.2196 5.82564 10.9596 5.52751 10.3859C5.5247 10.3774 5.51908 10.3718 5.51626 10.3634C5.63439 10.2931 5.75533 10.2227 5.87627 10.1524C6.10943 10.0146 6.33724 9.88805 6.53693 9.77836C6.42443 10.0821 6.34287 10.4477 6.30068 10.9765C6.25005 11.5953 6.506 12.3968 6.83787 12.7118C6.98413 12.8496 7.16103 12.8525 7.27072 12.8525C7.65885 12.8525 7.83323 12.5318 8.02701 12.1493C8.26608 11.6824 8.47702 11.1396 8.47702 11.1396C8.47702 11.1396 8.21264 12.6078 8.93546 12.6078C9.19956 12.6078 9.46393 12.2674 9.58234 12.0931V12.0959C9.58234 12.0959 9.58797 12.0846 9.60203 12.0621C9.63016 12.0199 9.64422 11.9946 9.64422 11.9946V11.9862C9.75109 11.8034 9.98454 11.3843 10.3358 10.6924C10.7915 9.79805 11.2271 8.68147 11.2271 8.68147C11.2692 8.92692 11.3275 9.16933 11.4015 9.4071C11.4802 9.67429 11.6462 9.9668 11.7784 10.2509C11.6715 10.3971 11.6068 10.4815 11.6068 10.4815C11.607 10.4837 11.608 10.4857 11.6096 10.4871C11.5252 10.5996 11.4296 10.7206 11.3312 10.8387C10.9715 11.2662 10.5437 11.7556 10.4874 11.8962C10.4199 12.0621 10.4368 12.1859 10.5662 12.2815C10.6618 12.3546 10.8305 12.3659 11.0075 12.3518C11.3309 12.3293 11.5587 12.2506 11.6684 12.1999C11.8706 12.1274 12.0617 12.0271 12.2362 11.9018C12.5878 11.6431 12.8016 11.2718 12.7819 10.7824C12.7706 10.5124 12.6834 10.2424 12.5766 9.9893C12.6075 9.9443 12.6413 9.89648 12.6722 9.84867C13.2288 9.03585 13.6591 8.14371 13.6591 8.14371C13.7012 8.38916 13.7595 8.63157 13.8335 8.86935C13.901 9.09716 14.0329 9.34748 14.1538 9.59217C13.631 10.0169 13.3075 10.5091 13.195 10.8325C12.9869 11.4316 13.15 11.7016 13.4566 11.7634C13.5944 11.7916 13.7913 11.7269 13.9375 11.665C14.1548 11.5927 14.3596 11.4874 14.5448 11.3528C14.8963 11.0941 15.2364 10.7312 15.2139 10.2391C15.2054 10.0169 15.1436 9.79467 15.062 9.58092C15.5036 9.39529 16.077 9.29404 16.8083 9.37842C18.3743 9.56123 18.6809 10.54 18.6218 10.9478C18.5628 11.3556 18.2337 11.5834 18.124 11.6509C18.0143 11.7184 17.9806 11.7438 17.989 11.7944C18.0031 11.8675 18.0537 11.8647 18.1465 11.8478C18.2759 11.8253 18.9675 11.5159 18.9984 10.7594C19.0434 9.80311 18.124 8.75122 16.4953 8.75966L16.4961 8.76022ZM4.42528 12.83C3.90806 13.3953 3.18243 13.609 2.87052 13.429C2.53582 13.2344 2.66801 12.4025 3.30618 11.8C3.69431 11.4344 4.19466 11.0969 4.52653 10.8887C4.60247 10.8437 4.71216 10.7762 4.84716 10.6947C4.86966 10.6806 4.88091 10.675 4.88091 10.675C4.90623 10.6581 4.93435 10.6441 4.96248 10.6272C5.19564 11.4822 4.97091 12.2359 4.42528 12.8294V12.83ZM8.2042 10.2593C8.0242 10.7009 7.64479 11.8259 7.41416 11.7668C7.21728 11.7162 7.09635 10.8584 7.37479 10.0146C7.51541 9.58992 7.81354 9.08366 7.99073 8.88679C8.27452 8.56897 8.58671 8.46772 8.65983 8.59428C8.75827 8.76022 8.3167 9.98367 8.2042 10.2593ZM11.3261 11.7499C11.2502 11.7893 11.1799 11.8146 11.1461 11.7949C11.1208 11.7809 11.177 11.7274 11.177 11.7274C11.177 11.7274 11.568 11.3084 11.7227 11.1171C11.8127 11.0046 11.9167 10.8724 12.029 10.7262C12.029 10.7402 12.0318 10.7543 12.0318 10.7712C12.0281 11.2746 11.5446 11.6149 11.3253 11.7499H11.3261ZM13.7331 11.2015C13.6768 11.1621 13.6853 11.0299 13.8737 10.6193C13.9468 10.459 14.1153 10.189 14.4081 9.93023C14.4412 10.0282 14.4592 10.1306 14.4615 10.234C14.4587 10.8668 14.0059 11.1031 13.7334 11.2015H13.7331Z" fill="#CD669A"/>
</svg>
