<svg width="15" height="15" viewBox="0 0 15 15" fill="none" xmlns="http://www.w3.org/2000/svg">
<path d="M13.4581 4.44484C13.4676 4.57809 13.4676 4.71136 13.4676 4.8446C13.4676 8.90866 10.3744 13.5914 4.72081 13.5914C2.97905 13.5914 1.36104 13.087 0 12.2114C0.247471 12.2399 0.485391 12.2494 0.742383 12.2494C2.17954 12.2494 3.50253 11.764 4.559 10.936C3.20748 10.9074 2.07486 10.0223 1.68463 8.80398C1.875 8.83252 2.06534 8.85156 2.26523 8.85156C2.54124 8.85156 2.81728 8.81348 3.07424 8.74688C1.66562 8.46133 0.609111 7.22403 0.609111 5.72975V5.69169C1.01836 5.92012 1.49429 6.06288 1.99869 6.08189C1.17064 5.52985 0.628154 4.58761 0.628154 3.52161C0.628154 2.95056 0.78041 2.42708 1.04692 1.97022C2.56025 3.8357 4.83501 5.05395 7.38574 5.18723C7.33816 4.9588 7.3096 4.72088 7.3096 4.48293C7.3096 2.78875 8.68017 1.40869 10.3838 1.40869C11.269 1.40869 12.0685 1.77988 12.63 2.3795C13.3248 2.24626 13.991 1.98927 14.5812 1.63712C14.3527 2.35097 13.8673 2.95059 13.2296 3.33127C13.8483 3.26468 14.4479 3.09332 14.9999 2.8554C14.5812 3.46451 14.0577 4.007 13.4581 4.44484Z" fill="#1DA1F2"/>
</svg>
