<svg width="15" height="18" viewBox="0 0 15 18" fill="none" xmlns="http://www.w3.org/2000/svg">
<g clip-path="url(#clip0)">
<path d="M14.717 7.90345L8.16961 1.35435C7.98836 1.17326 7.74262 1.07153 7.4864 1.07153C7.23019 1.07153 6.98446 1.17326 6.8032 1.35435L5.44182 2.71473L7.16682 4.43973C8.07284 4.1337 8.93066 5.00122 8.61961 5.90223L10.2823 7.56495C11.4284 7.16986 12.3308 8.6029 11.4699 9.46305C10.583 10.35 9.11916 9.36696 9.59494 8.21283L8.04305 6.66294V10.7427C8.89014 11.1626 8.78836 12.144 8.34706 12.5843C8.13146 12.7997 7.83911 12.9208 7.53428 12.9208C7.22946 12.9208 6.93711 12.7997 6.72151 12.5843C6.13322 11.995 6.35086 11.0136 7.09818 10.7093V6.59095C6.40175 6.30602 6.27452 5.56171 6.47407 5.08426L4.77351 3.38169L0.28289 7.87298C0.101717 8.05419 -6.10352e-05 8.29994 -6.10352e-05 8.55619C-6.10352e-05 8.81243 0.101717 9.05818 0.28289 9.23939L6.83233 15.7885C7.01353 15.9696 7.25921 16.0713 7.51537 16.0713C7.77153 16.0713 8.01721 15.9696 8.1984 15.7885L14.717 9.26986C14.8982 9.08865 15 8.8429 15 8.58666C15 8.33041 14.8982 8.08466 14.717 7.90345Z" fill="#F34E3E"/>
</g>
<defs>
<clipPath id="clip0">
<rect width="15" height="17.1429" fill="white"/>
</clipPath>
</defs>
</svg>
