<svg width="15" height="15" viewBox="0 0 15 15" fill="none" xmlns="http://www.w3.org/2000/svg">
<g clip-path="url(#clip0)">
<path d="M12.6562 9.375H11.7188C11.5944 9.375 11.4752 9.42439 11.3873 9.51229C11.2994 9.6002 11.25 9.71943 11.25 9.84375V13.125H1.875V3.75H6.09375C6.21807 3.75 6.3373 3.70061 6.42521 3.61271C6.51311 3.5248 6.5625 3.40557 6.5625 3.28125V2.34375C6.5625 2.21943 6.51311 2.1002 6.42521 2.01229C6.3373 1.92439 6.21807 1.875 6.09375 1.875H1.40625C1.03329 1.875 0.675604 2.02316 0.411881 2.28688C0.148158 2.5506 0 2.90829 0 3.28125L0 13.5938C0 13.9667 0.148158 14.3244 0.411881 14.5881C0.675604 14.8518 1.03329 15 1.40625 15H11.7188C12.0917 15 12.4494 14.8518 12.7131 14.5881C12.9768 14.3244 13.125 13.9667 13.125 13.5938V9.84375C13.125 9.71943 13.0756 9.6002 12.9877 9.51229C12.8998 9.42439 12.7806 9.375 12.6562 9.375ZM14.2969 0H10.5469C9.9208 0 9.60791 0.759082 10.0488 1.20117L11.0956 2.24795L3.95508 9.38584C3.88953 9.45116 3.83752 9.52878 3.80203 9.61425C3.76654 9.69971 3.74827 9.79135 3.74827 9.88389C3.74827 9.97643 3.76654 10.0681 3.80203 10.1535C3.83752 10.239 3.88953 10.3166 3.95508 10.3819L4.61924 11.0449C4.68456 11.1105 4.76218 11.1625 4.84765 11.198C4.93311 11.2335 5.02474 11.2517 5.11729 11.2517C5.20983 11.2517 5.30146 11.2335 5.38692 11.198C5.47239 11.1625 5.55001 11.1105 5.61533 11.0449L12.7523 3.90586L13.7988 4.95117C14.2383 5.39062 15 5.08301 15 4.45312V0.703125C15 0.516645 14.9259 0.337802 14.7941 0.205941C14.6622 0.074079 14.4834 0 14.2969 0V0Z" fill="white"/>
</g>
<defs>
<clipPath id="clip0">
<rect width="15" height="15" fill="white"/>
</clipPath>
</defs>
</svg>
