<svg width="15" height="15" viewBox="0 0 15 15" fill="none" xmlns="http://www.w3.org/2000/svg">
<path d="M13.9286 0H1.06808C0.478795 0 0 0.485491 0 1.08147V13.9185C0 14.5145 0.478795 15 1.06808 15H13.9286C14.5179 15 15 14.5145 15 13.9185V1.08147C15 0.485491 14.5179 0 13.9286 0ZM4.53348 12.8571H2.31027V5.69866H4.53683V12.8571H4.53348ZM3.42187 4.72098C2.70871 4.72098 2.13281 4.14174 2.13281 3.43192C2.13281 2.7221 2.70871 2.14286 3.42187 2.14286C4.1317 2.14286 4.71094 2.7221 4.71094 3.43192C4.71094 4.14509 4.13504 4.72098 3.42187 4.72098ZM12.8672 12.8571H10.644V9.375C10.644 8.54464 10.6272 7.47656 9.48884 7.47656C8.33036 7.47656 8.1529 8.38058 8.1529 9.31473V12.8571H5.92969V5.69866H8.0625V6.67634H8.09263C8.39062 6.11384 9.11719 5.5212 10.1987 5.5212C12.4487 5.5212 12.8672 7.00446 12.8672 8.93303V12.8571Z" fill="#0077B5"/>
</svg>
